<svg aria-hidden="true" style="position: absolute; width: 0; height: 0; overflow: hidden;" version="1.1" xmlns="http://www.w3.org/2000/svg" xmlns:xlink="http://www.w3.org/1999/xlink">
<defs>
<symbol id="icon-arrow-down" viewBox="0 0 32 32">
<path stroke-linejoin="round" stroke-linecap="round" stroke-miterlimit="4" stroke-width="3.2" d="M8 12l8 8 8-8"></path>
</symbol>
<symbol id="icon-heart" viewBox="0 0 32 32">
<path stroke-linejoin="round" stroke-linecap="round" stroke-miterlimit="4" stroke-width="2.4615" d="M27.787 6.146c-1.327-1.328-3.161-2.149-5.187-2.149s-3.86 0.821-5.187 2.149l-1.413 1.414-1.413-1.414c-1.331-1.35-3.18-2.186-5.224-2.186-4.051 0-7.335 3.284-7.335 7.335 0 2.044 0.836 3.892 2.184 5.223l0.001 0.001 11.787 11.787 11.787-11.787c1.327-1.327 2.148-3.161 2.148-5.186s-0.821-3.859-2.148-5.186v0z"></path>
</symbol>
<symbol id="icon-log-in" viewBox="0 0 32 32">
<path stroke-linejoin="round" stroke-linecap="round" stroke-miterlimit="4" stroke-width="3.2" d="M20 4h1.6c2.24 0 3.36 0 4.216 0.435 0.756 0.391 1.357 0.992 1.737 1.726l0.011 0.022c0.437 0.856 0.437 1.976 0.437 4.216v11.2c0 2.24 0 3.36-0.437 4.216-0.391 0.756-0.992 1.356-1.725 1.737l-0.022 0.011c-0.856 0.437-1.976 0.437-4.216 0.437h-1.6M13.333 9.333l6.667 6.667M20 16l-6.667 6.667M20 16h-16"></path>
</symbol>

<symbol id="icon-star" viewBox="0 0 32 32">
<path stroke-linejoin="miter" stroke-linecap="butt" stroke-miterlimit="4" stroke-width="2.4" d="M12.4 10.394l3.6-6.822 3.6 6.822c0.318 0.604 0.9 1.024 1.57 1.14l7.6 1.316-5.376 5.532c-0.385 0.396-0.622 0.937-0.622 1.533 0 0.11 0.008 0.219 0.024 0.325l-0.001-0.012 1.1 7.636-6.924-3.404c-0.283-0.142-0.617-0.225-0.97-0.225s-0.687 0.083-0.983 0.231l0.013-0.006-6.924 3.404 1.1-7.636c0.014-0.094 0.022-0.202 0.022-0.313 0-0.596-0.237-1.138-0.623-1.534l0.001 0-5.378-5.532 7.6-1.314c0.687-0.122 1.254-0.547 1.566-1.13l0.006-0.012z"></path>
</symbol>
<symbol id="icon-ukraine" viewBox="0 0 32 32">
<path fill="#ffda44" style="fill: var(--color1, #ffda44)" d="M16 32c8.837 0 16-7.163 16-16s-7.163-16-16-16-16 7.163-16 16 7.163 16 16 16z"></path>
<path fill="#338af3" style="fill: var(--color2, #338af3)" d="M0 16c0-8.837 7.163-16 16-16s16 7.163 16 16z"></path>
</symbol>
<symbol id="icon-rew_avatar" viewBox="0 0 32 32">
<path d="M23.007 28.58c-2.091-1.215-3.513-3.382-3.672-5.892l-0.001-0.021h1.333c0.15 2.044 1.304 3.789 2.965 4.758l0.029 0.015z"></path>
<path d="M8.993 28.58l-0.667-1.16c1.683-0.986 2.836-2.719 3.005-4.731l0.002-0.022h1.333c-0.16 2.531-1.582 4.699-3.638 5.895l-0.035 0.019z"></path>
<path d="M16 24.667c-5.020 0-8.667-4.533-8.667-10.773 0-5.693 3.333-9.227 8.667-9.227s8.667 3.533 8.667 9.227c0 6.24-3.647 10.773-8.667 10.773zM16 6c-4.667 0-7.333 2.88-7.333 7.893 0 5.44 3.087 9.44 7.333 9.44s7.333-4 7.333-9.44c0-5.013-2.667-7.893-7.333-7.893z"></path>
<path d="M12.353 13.46c-1.655-0.014-3.234-0.321-4.694-0.871l0.094 0.031 0.493-1.24c0.040 0 4.253 1.647 7.453 0 2.913-1.48 7.26-1.42 8.773 0.127l-0.947 0.933c-1.013-1.033-4.667-1.153-7.227 0.127-1.118 0.564-2.437 0.894-3.834 0.894-0.040 0-0.079-0-0.119-0.001l0.006 0z"></path>
<path d="M23.333 32h-14.667c-4.786 0-8.667-3.88-8.667-8.667v0-14.667c0-4.786 3.88-8.667 8.667-8.667v0h14.667c4.786 0 8.667 3.88 8.667 8.667v0 14.667c0 4.786-3.88 8.667-8.667 8.667v0zM8.667 1.333c-4.050 0-7.333 3.283-7.333 7.333v0 14.667c0 4.050 3.283 7.333 7.333 7.333v0h14.667c4.050 0 7.333-3.283 7.333-7.333v0-14.667c0-4.050-3.283-7.333-7.333-7.333v0z"></path>
</symbol>
<symbol id="icon-close" viewBox="0 0 32 32">
<path stroke-linejoin="round" stroke-linecap="round" stroke-miterlimit="4" stroke-width="2.5" d="M24 8l-16 16"></path>
<path stroke-linejoin="round" stroke-linecap="round" stroke-miterlimit="4" stroke-width="2.5" d="M8 8l16 16"></path>
</symbol>
<symbol id="icon-eye-on" viewBox="0 0 32 32">
<path stroke-linejoin="round" stroke-linecap="round" stroke-miterlimit="4" stroke-width="3.2" d="M2.667 16c0 0 5.333-10.667 13.333-10.667s13.333 10.667 13.333 10.667-5.333 10.667-13.333 10.667c-8 0-13.333-10.667-13.333-10.667z"></path>
<path stroke-linejoin="round" stroke-linecap="round" stroke-miterlimit="4" stroke-width="3.2" d="M16 20c2.209 0 4-1.791 4-4s-1.791-4-4-4c-2.209 0-4 1.791-4 4s1.791 4 4 4z"></path>
</symbol>
<symbol id="icon-eye-off" viewBox="0 0 32 32">
<path stroke-linejoin="round" stroke-linecap="round" stroke-miterlimit="4" stroke-width="3.2" d="M23.92 23.92c-2.279 1.737-5.055 2.7-7.92 2.747-9.333 0-14.667-10.667-14.667-10.667 1.659-3.091 3.959-5.791 6.747-7.92M13.2 5.653c0.918-0.215 1.857-0.322 2.8-0.32 9.333 0 14.667 10.667 14.667 10.667-0.809 1.514-1.775 2.94-2.88 4.253M18.827 18.827c-0.366 0.393-0.808 0.708-1.299 0.927s-1.020 0.336-1.557 0.346c-0.537 0.009-1.071-0.089-1.569-0.291s-0.95-0.5-1.33-0.88-0.679-0.832-0.88-1.33c-0.201-0.498-0.3-1.032-0.29-1.569s0.127-1.067 0.346-1.557 0.534-0.932 0.927-1.298"></path>
<path stroke-linejoin="round" stroke-linecap="round" stroke-miterlimit="4" stroke-width="3.2" d="M1.333 1.333l29.333 29.333"></path>
</symbol>
<symbol id="icon-Google" viewBox="0 0 32 32">
<path fill="#fff" style="fill: var(--color1, #fff)" d="M11.148 1.052c-6.243 2.212-10.635 8.066-10.635 14.946 0 7.278 4.915 13.408 11.606 15.253l0.111 0.026c1.267 0.34 2.722 0.536 4.222 0.536 1.372 0 2.706-0.163 3.983-0.472l-0.115 0.024c2.521-0.579 4.709-1.755 6.486-3.375l-0.011 0.010c1.857-1.742 3.247-3.962 3.975-6.464l0.025-0.101c0.447-1.518 0.703-3.261 0.703-5.064 0-1.177-0.11-2.329-0.319-3.446l0.018 0.115h-14.88v6.173h8.617c-0.366 2.043-1.525 3.763-3.139 4.863l-0.026 0.017c-0.992 0.665-2.165 1.147-3.428 1.367l-0.054 0.008c-0.567 0.111-1.22 0.174-1.887 0.174s-1.32-0.063-1.952-0.184l0.065 0.010c-1.337-0.282-2.517-0.815-3.54-1.551l0.028 0.019c-1.667-1.19-2.93-2.85-3.604-4.786l-0.021-0.069c-0.322-0.918-0.508-1.977-0.508-3.079s0.186-2.161 0.529-3.146l-0.020 0.067c0.503-1.457 1.288-2.703 2.296-3.729l-0.001 0.001c1.692-1.751 4.062-2.839 6.686-2.839 0.955 0 1.876 0.144 2.742 0.411l-0.066-0.017c1.331 0.416 2.474 1.104 3.413 2.003l-0.003-0.003q1.457-1.45 2.91-2.908c0.5-0.522 1.045-1.020 1.538-1.555-1.426-1.329-3.118-2.395-4.985-3.105l-0.105-0.035c-1.624-0.609-3.501-0.961-5.461-0.961-1.859 0-3.644 0.317-5.304 0.9l0.112-0.034z"></path>
<path fill="#e33629" style="fill: var(--color2, #e33629)" d="M11.148 1.052c1.549-0.549 3.335-0.867 5.195-0.867 1.958 0 3.834 0.352 5.568 0.995l-0.111-0.036c1.972 0.75 3.663 1.82 5.096 3.163l-0.008-0.008c-0.5 0.535-1.027 1.035-1.538 1.555q-1.455 1.452-2.907 2.895c-0.936-0.896-2.079-1.584-3.349-1.984l-0.061-0.016c-0.804-0.252-1.728-0.397-2.686-0.397-2.62 0-4.987 1.085-6.677 2.829l-0.002 0.002c-1.007 1.024-1.792 2.271-2.274 3.659l-0.021 0.069-5.183-4.013c1.875-3.662 5.023-6.45 8.847-7.813l0.111-0.035z"></path>
<path fill="#f8bd00" style="fill: var(--color3, #f8bd00)" d="M0.815 12.875c0.308-1.499 0.783-2.829 1.416-4.064l-0.041 0.089 5.183 4.022c-0.322 0.918-0.508 1.977-0.508 3.079s0.186 2.161 0.529 3.146l-0.020-0.067q-2.59 2-5.183 4.020c-1.062-2.070-1.685-4.516-1.685-7.107 0-1.103 0.113-2.18 0.328-3.22l-0.018 0.102z"></path>
<path fill="#587dbd" style="fill: var(--color4, #587dbd)" d="M16.317 13.037h14.88c0.191 1.001 0.301 2.153 0.301 3.331 0 1.803-0.257 3.547-0.736 5.196l0.033-0.131c-0.753 2.603-2.143 4.823-3.992 6.558l-0.008 0.007c-1.672-1.305-3.352-2.6-5.025-3.905 1.641-1.118 2.8-2.84 3.158-4.84l0.007-0.045h-8.617c-0.003-2.055 0-4.113 0-6.17z"></path>
<path fill="#319f43" style="fill: var(--color5, #319f43)" d="M2.188 23.1q2.592-2 5.183-4.020c0.697 2.005 1.961 3.665 3.6 4.835l0.030 0.020c0.999 0.714 2.181 1.243 3.46 1.509l0.060 0.011c0.568 0.111 1.22 0.174 1.887 0.174s1.32-0.063 1.952-0.184l-0.065 0.010c1.317-0.228 2.49-0.71 3.515-1.396l-0.033 0.021c1.672 1.305 3.352 2.6 5.025 3.905-1.766 1.61-3.954 2.788-6.379 3.349l-0.096 0.019c-1.162 0.285-2.496 0.448-3.868 0.448-1.501 0-2.955-0.196-4.34-0.563l0.118 0.027c-2.208-0.601-4.131-1.598-5.781-2.922l0.031 0.024c-1.778-1.42-3.224-3.176-4.258-5.178l-0.042-0.089z"></path>
</symbol>
</defs>
</svg>
