<svg aria-hidden="true" style="position: absolute; width: 0; height: 0; overflow: hidden;" version="1.1" xmlns="http://www.w3.org/2000/svg" xmlns:xlink="http://www.w3.org/1999/xlink">
<defs>
<symbol id="icon-arrow-down" viewBox="0 0 32 32">
<path stroke-linejoin="round" stroke-linecap="round" stroke-miterlimit="4" stroke-width="3.2" d="M8 12l8 8 8-8"></path>
</symbol>
<symbol id="icon-heart" viewBox="0 0 32 32">
<path stroke-linejoin="round" stroke-linecap="round" stroke-miterlimit="4" stroke-width="2.4615" d="M27.787 6.146c-1.327-1.328-3.161-2.149-5.187-2.149s-3.86 0.821-5.187 2.149l-1.413 1.414-1.413-1.414c-1.331-1.35-3.18-2.186-5.224-2.186-4.051 0-7.335 3.284-7.335 7.335 0 2.044 0.836 3.892 2.184 5.223l0.001 0.001 11.787 11.787 11.787-11.787c1.327-1.327 2.148-3.161 2.148-5.186s-0.821-3.859-2.148-5.186v0z"></path>
</symbol>
<symbol id="icon-log-in" viewBox="0 0 32 32">
<path stroke-linejoin="round" stroke-linecap="round" stroke-miterlimit="4" stroke-width="3.2" d="M20 4h1.6c2.24 0 3.36 0 4.216 0.435 0.756 0.391 1.357 0.992 1.737 1.726l0.011 0.022c0.437 0.856 0.437 1.976 0.437 4.216v11.2c0 2.24 0 3.36-0.437 4.216-0.391 0.756-0.992 1.356-1.725 1.737l-0.022 0.011c-0.856 0.437-1.976 0.437-4.216 0.437h-1.6M13.333 9.333l6.667 6.667M20 16l-6.667 6.667M20 16h-16"></path>
</symbol>

<symbol id="icon-star" viewBox="0 0 32 32">
<path stroke-linejoin="miter" stroke-linecap="butt" stroke-miterlimit="4" stroke-width="2.4" d="M12.4 10.394l3.6-6.822 3.6 6.822c0.318 0.604 0.9 1.024 1.57 1.14l7.6 1.316-5.376 5.532c-0.385 0.396-0.622 0.937-0.622 1.533 0 0.11 0.008 0.219 0.024 0.325l-0.001-0.012 1.1 7.636-6.924-3.404c-0.283-0.142-0.617-0.225-0.97-0.225s-0.687 0.083-0.983 0.231l0.013-0.006-6.924 3.404 1.1-7.636c0.014-0.094 0.022-0.202 0.022-0.313 0-0.596-0.237-1.138-0.623-1.534l0.001 0-5.378-5.532 7.6-1.314c0.687-0.122 1.254-0.547 1.566-1.13l0.006-0.012z"></path>
</symbol>
<symbol id="icon-ukraine" viewBox="0 0 32 32">
<path fill="#ffda44" style="fill: var(--color1, #ffda44)" d="M16 32c8.837 0 16-7.163 16-16s-7.163-16-16-16-16 7.163-16 16 7.163 16 16 16z"></path>
<path fill="#338af3" style="fill: var(--color2, #338af3)" d="M0 16c0-8.837 7.163-16 16-16s16 7.163 16 16z"></path>
</symbol>
<symbol id="icon-rew_avatar" viewBox="0 0 32 32">
<path d="M23.007 28.58c-2.091-1.215-3.513-3.382-3.672-5.892l-0.001-0.021h1.333c0.15 2.044 1.304 3.789 2.965 4.758l0.029 0.015z"></path>
<path d="M8.993 28.58l-0.667-1.16c1.683-0.986 2.836-2.719 3.005-4.731l0.002-0.022h1.333c-0.16 2.531-1.582 4.699-3.638 5.895l-0.035 0.019z"></path>
<path d="M16 24.667c-5.020 0-8.667-4.533-8.667-10.773 0-5.693 3.333-9.227 8.667-9.227s8.667 3.533 8.667 9.227c0 6.24-3.647 10.773-8.667 10.773zM16 6c-4.667 0-7.333 2.88-7.333 7.893 0 5.44 3.087 9.44 7.333 9.44s7.333-4 7.333-9.44c0-5.013-2.667-7.893-7.333-7.893z"></path>
<path d="M12.353 13.46c-1.655-0.014-3.234-0.321-4.694-0.871l0.094 0.031 0.493-1.24c0.040 0 4.253 1.647 7.453 0 2.913-1.48 7.26-1.42 8.773 0.127l-0.947 0.933c-1.013-1.033-4.667-1.153-7.227 0.127-1.118 0.564-2.437 0.894-3.834 0.894-0.040 0-0.079-0-0.119-0.001l0.006 0z"></path>
<path d="M23.333 32h-14.667c-4.786 0-8.667-3.88-8.667-8.667v0-14.667c0-4.786 3.88-8.667 8.667-8.667v0h14.667c4.786 0 8.667 3.88 8.667 8.667v0 14.667c0 4.786-3.88 8.667-8.667 8.667v0zM8.667 1.333c-4.050 0-7.333 3.283-7.333 7.333v0 14.667c0 4.050 3.283 7.333 7.333 7.333v0h14.667c4.050 0 7.333-3.283 7.333-7.333v0-14.667c0-4.050-3.283-7.333-7.333-7.333v0z"></path>
</symbol>
<symbol id="icon-close" viewBox="0 0 32 32">
<path stroke-linejoin="round" stroke-linecap="round" stroke-miterlimit="4" stroke-width="2.5" d="M24 8l-16 16"></path>
<path stroke-linejoin="round" stroke-linecap="round" stroke-miterlimit="4" stroke-width="2.5" d="M8 8l16 16"></path>
</symbol>
<symbol id="icon-eye-on" viewBox="0 0 32 32">
<path stroke-linejoin="round" stroke-linecap="round" stroke-miterlimit="4" stroke-width="3.2" d="M2.667 16c0 0 5.333-10.667 13.333-10.667s13.333 10.667 13.333 10.667-5.333 10.667-13.333 10.667c-8 0-13.333-10.667-13.333-10.667z"></path>
<path stroke-linejoin="round" stroke-linecap="round" stroke-miterlimit="4" stroke-width="3.2" d="M16 20c2.209 0 4-1.791 4-4s-1.791-4-4-4c-2.209 0-4 1.791-4 4s1.791 4 4 4z"></path>
</symbol>
<symbol id="icon-eye-off" viewBox="0 0 32 32">
<path stroke-linejoin="round" stroke-linecap="round" stroke-miterlimit="4" stroke-width="3.2" d="M23.92 23.92c-2.279 1.737-5.055 2.7-7.92 2.747-9.333 0-14.667-10.667-14.667-10.667 1.659-3.091 3.959-5.791 6.747-7.92M13.2 5.653c0.918-0.215 1.857-0.322 2.8-0.32 9.333 0 14.667 10.667 14.667 10.667-0.809 1.514-1.775 2.94-2.88 4.253M18.827 18.827c-0.366 0.393-0.808 0.708-1.299 0.927s-1.020 0.336-1.557 0.346c-0.537 0.009-1.071-0.089-1.569-0.291s-0.95-0.5-1.33-0.88-0.679-0.832-0.88-1.33c-0.201-0.498-0.3-1.032-0.29-1.569s0.127-1.067 0.346-1.557 0.534-0.932 0.927-1.298"></path>
<path stroke-linejoin="round" stroke-linecap="round" stroke-miterlimit="4" stroke-width="3.2" d="M1.333 1.333l29.333 29.333"></path>
</symbol>
</defs>
</svg>
